<svg class="w-10 h-10 text-sky-400 flex-shrink-0" xmlns="http://www.w3.org/2000/svg" viewBox="0 0 23 23" fill="none" stroke="currentColor"><path stroke-linecap="round" stroke-linejoin="round" stroke-width=".9" d="M6.35 13.5a2.7 2.7 0 0 0 2.7 2.7h6.75a2.25 2.25 0 0 0 .8-4.354 1.8 1.8 0 0 0-2.256-2.309 3.15 3.15 0 0 0-6.14 1.398A2.7 2.7 0 0 0 6.35 13.5"/><path stroke-linecap="round" stroke-linejoin="round" d="M12 2v2m0 16v2m10-10h-2M4 12H2m17.071 7.071-1.414-1.414M6.343 6.343 4.929 4.929m14.142 0-1.414 1.414M6.343 17.657l-1.414 1.414"/></svg>